<mxfile host="app.diagrams.net" modified="2023-11-25T00:10:29.884Z" agent="Mozilla/5.0 (Windows NT 10.0; Win64; x64; rv:120.0) Gecko/20100101 Firefox/120.0" etag="pLo_ufI1NOd8XYDEk32o" version="22.1.4" type="device">
  <diagram name="Page-1" id="W_kA3sglpmRYMi78AujP">
    <mxGraphModel dx="2359" dy="815" grid="1" gridSize="10" guides="1" tooltips="1" connect="1" arrows="1" fold="1" page="1" pageScale="1" pageWidth="850" pageHeight="1100" math="0" shadow="0">
      <root>
        <mxCell id="0" />
        <mxCell id="1" parent="0" />
        <mxCell id="ufDDuVdV7RdQUQUNFYPA-53" value="" style="rounded=0;whiteSpace=wrap;html=1;" vertex="1" parent="1">
          <mxGeometry x="-260" y="560" width="1280" height="260" as="geometry" />
        </mxCell>
        <mxCell id="ufDDuVdV7RdQUQUNFYPA-55" value="" style="rounded=0;whiteSpace=wrap;html=1;" vertex="1" parent="1">
          <mxGeometry x="220" y="980" width="680" height="180" as="geometry" />
        </mxCell>
        <mxCell id="ufDDuVdV7RdQUQUNFYPA-14" value="" style="endArrow=classic;html=1;rounded=0;exitX=0.5;exitY=0;exitDx=0;exitDy=0;entryX=0;entryY=0.75;entryDx=0;entryDy=0;startArrow=classic;startFill=1;" edge="1" parent="1" source="ufDDuVdV7RdQUQUNFYPA-12" target="ufDDuVdV7RdQUQUNFYPA-2">
          <mxGeometry width="50" height="50" relative="1" as="geometry">
            <mxPoint x="400" y="510" as="sourcePoint" />
            <mxPoint x="280" y="390" as="targetPoint" />
          </mxGeometry>
        </mxCell>
        <mxCell id="ufDDuVdV7RdQUQUNFYPA-1" value="Application" style="rounded=1;whiteSpace=wrap;html=1;" vertex="1" parent="1">
          <mxGeometry x="320" y="120" width="120" height="60" as="geometry" />
        </mxCell>
        <mxCell id="ufDDuVdV7RdQUQUNFYPA-3" style="edgeStyle=orthogonalEdgeStyle;rounded=0;orthogonalLoop=1;jettySize=auto;html=1;startArrow=classic;startFill=1;" edge="1" parent="1" source="ufDDuVdV7RdQUQUNFYPA-2" target="ufDDuVdV7RdQUQUNFYPA-1">
          <mxGeometry relative="1" as="geometry" />
        </mxCell>
        <mxCell id="ufDDuVdV7RdQUQUNFYPA-2" value="MessageRouter" style="rounded=1;whiteSpace=wrap;html=1;" vertex="1" parent="1">
          <mxGeometry x="320" y="240" width="120" height="60" as="geometry" />
        </mxCell>
        <mxCell id="ufDDuVdV7RdQUQUNFYPA-4" value="Resource&lt;br&gt;Manager" style="rounded=1;whiteSpace=wrap;html=1;" vertex="1" parent="1">
          <mxGeometry x="500" y="600" width="120" height="60" as="geometry" />
        </mxCell>
        <mxCell id="ufDDuVdV7RdQUQUNFYPA-6" value="&lt;div&gt;Gui&lt;/div&gt;Manager" style="rounded=1;whiteSpace=wrap;html=1;" vertex="1" parent="1">
          <mxGeometry x="260" y="600" width="120" height="60" as="geometry" />
        </mxCell>
        <mxCell id="ufDDuVdV7RdQUQUNFYPA-7" value="Graphics&lt;br&gt;Manager" style="rounded=1;whiteSpace=wrap;html=1;" vertex="1" parent="1">
          <mxGeometry x="140" y="600" width="120" height="60" as="geometry" />
        </mxCell>
        <mxCell id="ufDDuVdV7RdQUQUNFYPA-8" value="Ecs&lt;br&gt;Manager" style="rounded=1;whiteSpace=wrap;html=1;" vertex="1" parent="1">
          <mxGeometry x="20" y="600" width="120" height="60" as="geometry" />
        </mxCell>
        <mxCell id="ufDDuVdV7RdQUQUNFYPA-10" value="Physics&lt;br&gt;Manager" style="rounded=1;whiteSpace=wrap;html=1;" vertex="1" parent="1">
          <mxGeometry x="620" y="600" width="120" height="60" as="geometry" />
        </mxCell>
        <mxCell id="ufDDuVdV7RdQUQUNFYPA-11" value="&lt;div&gt;Script&lt;/div&gt;Manager" style="rounded=1;whiteSpace=wrap;html=1;" vertex="1" parent="1">
          <mxGeometry x="860" y="600" width="120" height="60" as="geometry" />
        </mxCell>
        <mxCell id="ufDDuVdV7RdQUQUNFYPA-12" value="Audio&lt;br&gt;Manager" style="rounded=1;whiteSpace=wrap;html=1;" vertex="1" parent="1">
          <mxGeometry x="-220" y="600" width="120" height="60" as="geometry" />
        </mxCell>
        <mxCell id="ufDDuVdV7RdQUQUNFYPA-16" value="" style="endArrow=classic;html=1;rounded=0;exitX=0.5;exitY=0;exitDx=0;exitDy=0;entryX=0.25;entryY=1;entryDx=0;entryDy=0;startArrow=classic;startFill=1;" edge="1" parent="1" source="ufDDuVdV7RdQUQUNFYPA-8" target="ufDDuVdV7RdQUQUNFYPA-2">
          <mxGeometry width="50" height="50" relative="1" as="geometry">
            <mxPoint x="30" y="610" as="sourcePoint" />
            <mxPoint x="300" y="420" as="targetPoint" />
          </mxGeometry>
        </mxCell>
        <mxCell id="ufDDuVdV7RdQUQUNFYPA-17" value="" style="endArrow=classic;html=1;rounded=0;exitX=0.5;exitY=0;exitDx=0;exitDy=0;entryX=0.5;entryY=1;entryDx=0;entryDy=0;startArrow=classic;startFill=1;" edge="1" parent="1" source="ufDDuVdV7RdQUQUNFYPA-7" target="ufDDuVdV7RdQUQUNFYPA-2">
          <mxGeometry width="50" height="50" relative="1" as="geometry">
            <mxPoint x="150" y="610" as="sourcePoint" />
            <mxPoint x="370" y="570" as="targetPoint" />
          </mxGeometry>
        </mxCell>
        <mxCell id="ufDDuVdV7RdQUQUNFYPA-18" value="" style="endArrow=classic;html=1;rounded=0;exitX=0.5;exitY=0;exitDx=0;exitDy=0;entryX=0.5;entryY=1;entryDx=0;entryDy=0;startArrow=classic;startFill=1;" edge="1" parent="1" source="ufDDuVdV7RdQUQUNFYPA-6" target="ufDDuVdV7RdQUQUNFYPA-2">
          <mxGeometry width="50" height="50" relative="1" as="geometry">
            <mxPoint x="270" y="610" as="sourcePoint" />
            <mxPoint x="390" y="560" as="targetPoint" />
          </mxGeometry>
        </mxCell>
        <mxCell id="ufDDuVdV7RdQUQUNFYPA-20" value="" style="endArrow=classic;html=1;rounded=0;exitX=0.5;exitY=0;exitDx=0;exitDy=0;entryX=0.75;entryY=1;entryDx=0;entryDy=0;startArrow=classic;startFill=1;" edge="1" parent="1" source="ufDDuVdV7RdQUQUNFYPA-10" target="ufDDuVdV7RdQUQUNFYPA-2">
          <mxGeometry width="50" height="50" relative="1" as="geometry">
            <mxPoint x="510" y="610" as="sourcePoint" />
            <mxPoint x="480" y="510" as="targetPoint" />
          </mxGeometry>
        </mxCell>
        <mxCell id="ufDDuVdV7RdQUQUNFYPA-21" value="" style="endArrow=classic;html=1;rounded=0;exitX=0.5;exitY=0;exitDx=0;exitDy=0;entryX=1;entryY=0.75;entryDx=0;entryDy=0;startArrow=classic;startFill=1;" edge="1" parent="1" source="ufDDuVdV7RdQUQUNFYPA-11" target="ufDDuVdV7RdQUQUNFYPA-2">
          <mxGeometry width="50" height="50" relative="1" as="geometry">
            <mxPoint x="630" y="610" as="sourcePoint" />
            <mxPoint x="610" y="430" as="targetPoint" />
          </mxGeometry>
        </mxCell>
        <mxCell id="ufDDuVdV7RdQUQUNFYPA-22" value="Config&lt;br&gt;Loader" style="rounded=1;whiteSpace=wrap;html=1;" vertex="1" parent="1">
          <mxGeometry x="380" y="1020" width="120" height="60" as="geometry" />
        </mxCell>
        <mxCell id="ufDDuVdV7RdQUQUNFYPA-23" value="Shader&lt;br&gt;Loader" style="rounded=1;whiteSpace=wrap;html=1;" vertex="1" parent="1">
          <mxGeometry x="620" y="1020" width="120" height="60" as="geometry" />
        </mxCell>
        <mxCell id="ufDDuVdV7RdQUQUNFYPA-24" value="Audio&lt;br&gt;Loader" style="rounded=1;whiteSpace=wrap;html=1;" vertex="1" parent="1">
          <mxGeometry x="260" y="1020" width="120" height="60" as="geometry" />
        </mxCell>
        <mxCell id="ufDDuVdV7RdQUQUNFYPA-25" value="Texture&lt;br&gt;Loader" style="rounded=1;whiteSpace=wrap;html=1;" vertex="1" parent="1">
          <mxGeometry x="740" y="1020" width="120" height="60" as="geometry" />
        </mxCell>
        <mxCell id="ufDDuVdV7RdQUQUNFYPA-26" value="Model&lt;br&gt;Loader" style="rounded=1;whiteSpace=wrap;html=1;" vertex="1" parent="1">
          <mxGeometry x="500" y="1020" width="120" height="60" as="geometry" />
        </mxCell>
        <mxCell id="ufDDuVdV7RdQUQUNFYPA-34" value="Plays, stops&lt;br&gt;audio&lt;br&gt;(OpenAL)" style="text;html=1;strokeColor=none;fillColor=none;align=center;verticalAlign=middle;whiteSpace=wrap;rounded=0;" vertex="1" parent="1">
          <mxGeometry x="-220" y="680" width="120" height="60" as="geometry" />
        </mxCell>
        <mxCell id="ufDDuVdV7RdQUQUNFYPA-35" value="Handles&lt;br&gt;ECS&lt;br&gt;(entt)" style="text;html=1;strokeColor=none;fillColor=none;align=center;verticalAlign=middle;whiteSpace=wrap;rounded=0;" vertex="1" parent="1">
          <mxGeometry x="20" y="680" width="120" height="60" as="geometry" />
        </mxCell>
        <mxCell id="ufDDuVdV7RdQUQUNFYPA-36" value="Handles&lt;br&gt;Graphics&lt;br&gt;(OpenGL)" style="text;html=1;strokeColor=none;fillColor=none;align=center;verticalAlign=middle;whiteSpace=wrap;rounded=0;" vertex="1" parent="1">
          <mxGeometry x="140" y="680" width="120" height="60" as="geometry" />
        </mxCell>
        <mxCell id="ufDDuVdV7RdQUQUNFYPA-37" value="Handles&lt;br&gt;GUI&lt;br&gt;(ImGui)" style="text;html=1;strokeColor=none;fillColor=none;align=center;verticalAlign=middle;whiteSpace=wrap;rounded=0;" vertex="1" parent="1">
          <mxGeometry x="260" y="680" width="120" height="60" as="geometry" />
        </mxCell>
        <mxCell id="ufDDuVdV7RdQUQUNFYPA-38" value="Handles&lt;br&gt;Physics&lt;br&gt;(Box2D)" style="text;html=1;strokeColor=none;fillColor=none;align=center;verticalAlign=middle;whiteSpace=wrap;rounded=0;" vertex="1" parent="1">
          <mxGeometry x="620" y="680" width="120" height="60" as="geometry" />
        </mxCell>
        <mxCell id="ufDDuVdV7RdQUQUNFYPA-39" value="Handles&lt;br&gt;Scripts&lt;br&gt;(Lua)" style="text;html=1;strokeColor=none;fillColor=none;align=center;verticalAlign=middle;whiteSpace=wrap;rounded=0;" vertex="1" parent="1">
          <mxGeometry x="860" y="680" width="120" height="60" as="geometry" />
        </mxCell>
        <mxCell id="ufDDuVdV7RdQUQUNFYPA-40" value="Sends messages&lt;br&gt;between components" style="text;html=1;strokeColor=none;fillColor=none;align=center;verticalAlign=middle;whiteSpace=wrap;rounded=0;" vertex="1" parent="1">
          <mxGeometry x="480" y="240" width="120" height="60" as="geometry" />
        </mxCell>
        <mxCell id="ufDDuVdV7RdQUQUNFYPA-41" value="Main Game &lt;br&gt;start, loop, end" style="text;html=1;strokeColor=none;fillColor=none;align=center;verticalAlign=middle;whiteSpace=wrap;rounded=0;" vertex="1" parent="1">
          <mxGeometry x="480" y="120" width="120" height="60" as="geometry" />
        </mxCell>
        <mxCell id="ufDDuVdV7RdQUQUNFYPA-43" value="&lt;div&gt;Scene&lt;br&gt;&lt;/div&gt;Manager" style="rounded=1;whiteSpace=wrap;html=1;" vertex="1" parent="1">
          <mxGeometry x="740" y="600" width="120" height="60" as="geometry" />
        </mxCell>
        <mxCell id="ufDDuVdV7RdQUQUNFYPA-44" value="Handles &lt;br&gt;Scenes" style="text;html=1;strokeColor=none;fillColor=none;align=center;verticalAlign=middle;whiteSpace=wrap;rounded=0;" vertex="1" parent="1">
          <mxGeometry x="740" y="680" width="120" height="60" as="geometry" />
        </mxCell>
        <mxCell id="ufDDuVdV7RdQUQUNFYPA-45" value="" style="endArrow=classic;html=1;rounded=0;exitX=0.5;exitY=0;exitDx=0;exitDy=0;entryX=1;entryY=1;entryDx=0;entryDy=0;startArrow=classic;startFill=1;" edge="1" parent="1" source="ufDDuVdV7RdQUQUNFYPA-43" target="ufDDuVdV7RdQUQUNFYPA-2">
          <mxGeometry width="50" height="50" relative="1" as="geometry">
            <mxPoint x="510" y="610" as="sourcePoint" />
            <mxPoint x="390" y="470" as="targetPoint" />
          </mxGeometry>
        </mxCell>
        <mxCell id="ufDDuVdV7RdQUQUNFYPA-46" value="Display&lt;br&gt;Manager" style="rounded=1;whiteSpace=wrap;html=1;" vertex="1" parent="1">
          <mxGeometry x="-100" y="600" width="120" height="60" as="geometry" />
        </mxCell>
        <mxCell id="ufDDuVdV7RdQUQUNFYPA-47" value="Handles&lt;br&gt;displaying&lt;br&gt;(GLFW)" style="text;html=1;strokeColor=none;fillColor=none;align=center;verticalAlign=middle;whiteSpace=wrap;rounded=0;" vertex="1" parent="1">
          <mxGeometry x="-100" y="680" width="120" height="60" as="geometry" />
        </mxCell>
        <mxCell id="ufDDuVdV7RdQUQUNFYPA-48" value="Input&lt;br&gt;Manager" style="rounded=1;whiteSpace=wrap;html=1;" vertex="1" parent="1">
          <mxGeometry x="380" y="600" width="120" height="60" as="geometry" />
        </mxCell>
        <mxCell id="ufDDuVdV7RdQUQUNFYPA-49" value="Handles&lt;br&gt;Input&lt;br&gt;(GLFW)" style="text;html=1;strokeColor=none;fillColor=none;align=center;verticalAlign=middle;whiteSpace=wrap;rounded=0;" vertex="1" parent="1">
          <mxGeometry x="380" y="680" width="120" height="60" as="geometry" />
        </mxCell>
        <mxCell id="ufDDuVdV7RdQUQUNFYPA-50" value="" style="endArrow=classic;html=1;rounded=0;exitX=0.5;exitY=0;exitDx=0;exitDy=0;entryX=0;entryY=1;entryDx=0;entryDy=0;startArrow=classic;startFill=1;" edge="1" parent="1" source="ufDDuVdV7RdQUQUNFYPA-46" target="ufDDuVdV7RdQUQUNFYPA-2">
          <mxGeometry width="50" height="50" relative="1" as="geometry">
            <mxPoint x="150" y="610" as="sourcePoint" />
            <mxPoint x="310" y="430" as="targetPoint" />
          </mxGeometry>
        </mxCell>
        <mxCell id="ufDDuVdV7RdQUQUNFYPA-51" value="" style="endArrow=classic;html=1;rounded=0;exitX=0.5;exitY=0;exitDx=0;exitDy=0;entryX=0.5;entryY=1;entryDx=0;entryDy=0;startArrow=classic;startFill=1;" edge="1" parent="1" source="ufDDuVdV7RdQUQUNFYPA-48" target="ufDDuVdV7RdQUQUNFYPA-2">
          <mxGeometry width="50" height="50" relative="1" as="geometry">
            <mxPoint x="630" y="610" as="sourcePoint" />
            <mxPoint x="420" y="390" as="targetPoint" />
          </mxGeometry>
        </mxCell>
        <mxCell id="ufDDuVdV7RdQUQUNFYPA-56" value="ResourceLoaders" style="text;html=1;strokeColor=none;fillColor=none;align=center;verticalAlign=middle;whiteSpace=wrap;rounded=0;fontSize=40;" vertex="1" parent="1">
          <mxGeometry x="370" y="1100" width="380" height="40" as="geometry" />
        </mxCell>
        <mxCell id="ufDDuVdV7RdQUQUNFYPA-57" value="Managers" style="text;html=1;strokeColor=none;fillColor=none;align=center;verticalAlign=middle;whiteSpace=wrap;rounded=0;fontSize=40;" vertex="1" parent="1">
          <mxGeometry x="190" y="760" width="380" height="40" as="geometry" />
        </mxCell>
        <mxCell id="ufDDuVdV7RdQUQUNFYPA-52" value="Gathers&lt;br&gt;resources" style="text;html=1;strokeColor=none;fillColor=none;align=center;verticalAlign=middle;whiteSpace=wrap;rounded=0;" vertex="1" parent="1">
          <mxGeometry x="500" y="680" width="120" height="60" as="geometry" />
        </mxCell>
        <mxCell id="ufDDuVdV7RdQUQUNFYPA-60" value="" style="endArrow=classic;html=1;rounded=0;exitX=0.5;exitY=0;exitDx=0;exitDy=0;entryX=0.5;entryY=1;entryDx=0;entryDy=0;startArrow=classic;startFill=1;" edge="1" parent="1" source="ufDDuVdV7RdQUQUNFYPA-4" target="ufDDuVdV7RdQUQUNFYPA-2">
          <mxGeometry width="50" height="50" relative="1" as="geometry">
            <mxPoint x="450" y="610" as="sourcePoint" />
            <mxPoint x="390" y="310" as="targetPoint" />
          </mxGeometry>
        </mxCell>
        <mxCell id="ufDDuVdV7RdQUQUNFYPA-61" value="" style="endArrow=classic;html=1;rounded=0;exitX=0.5;exitY=0;exitDx=0;exitDy=0;entryX=0;entryY=1;entryDx=0;entryDy=0;startArrow=classic;startFill=1;" edge="1" parent="1" source="ufDDuVdV7RdQUQUNFYPA-24" target="ufDDuVdV7RdQUQUNFYPA-4">
          <mxGeometry width="50" height="50" relative="1" as="geometry">
            <mxPoint x="450" y="610" as="sourcePoint" />
            <mxPoint x="390" y="310" as="targetPoint" />
          </mxGeometry>
        </mxCell>
        <mxCell id="ufDDuVdV7RdQUQUNFYPA-62" value="" style="endArrow=classic;html=1;rounded=0;exitX=0.5;exitY=0;exitDx=0;exitDy=0;entryX=0.25;entryY=1;entryDx=0;entryDy=0;startArrow=classic;startFill=1;" edge="1" parent="1" source="ufDDuVdV7RdQUQUNFYPA-22" target="ufDDuVdV7RdQUQUNFYPA-4">
          <mxGeometry width="50" height="50" relative="1" as="geometry">
            <mxPoint x="330" y="930" as="sourcePoint" />
            <mxPoint x="510" y="670" as="targetPoint" />
          </mxGeometry>
        </mxCell>
        <mxCell id="ufDDuVdV7RdQUQUNFYPA-63" value="" style="endArrow=classic;html=1;rounded=0;exitX=0.5;exitY=0;exitDx=0;exitDy=0;entryX=0.5;entryY=1;entryDx=0;entryDy=0;startArrow=classic;startFill=1;" edge="1" parent="1" source="ufDDuVdV7RdQUQUNFYPA-26" target="ufDDuVdV7RdQUQUNFYPA-4">
          <mxGeometry width="50" height="50" relative="1" as="geometry">
            <mxPoint x="450" y="930" as="sourcePoint" />
            <mxPoint x="540" y="670" as="targetPoint" />
          </mxGeometry>
        </mxCell>
        <mxCell id="ufDDuVdV7RdQUQUNFYPA-64" value="" style="endArrow=classic;html=1;rounded=0;entryX=0.75;entryY=1;entryDx=0;entryDy=0;startArrow=classic;startFill=1;" edge="1" parent="1" source="ufDDuVdV7RdQUQUNFYPA-23" target="ufDDuVdV7RdQUQUNFYPA-4">
          <mxGeometry width="50" height="50" relative="1" as="geometry">
            <mxPoint x="570" y="930" as="sourcePoint" />
            <mxPoint x="570" y="670" as="targetPoint" />
          </mxGeometry>
        </mxCell>
        <mxCell id="ufDDuVdV7RdQUQUNFYPA-65" value="" style="endArrow=classic;html=1;rounded=0;entryX=1;entryY=1;entryDx=0;entryDy=0;exitX=0.5;exitY=0;exitDx=0;exitDy=0;startArrow=classic;startFill=1;" edge="1" parent="1" source="ufDDuVdV7RdQUQUNFYPA-25" target="ufDDuVdV7RdQUQUNFYPA-4">
          <mxGeometry width="50" height="50" relative="1" as="geometry">
            <mxPoint x="681" y="930" as="sourcePoint" />
            <mxPoint x="600" y="670" as="targetPoint" />
          </mxGeometry>
        </mxCell>
      </root>
    </mxGraphModel>
  </diagram>
</mxfile>
